<svg width="568" height="94" viewBox="0 0 568 94" fill="none" xmlns="http://www.w3.org/2000/svg">
<path d="M33 23.5H38.3V2H43.7V72H38.3V66.6H33V61.2H38.3V28.9H33V23.5ZM11.4 23.5V18.2H33V23.5H11.4ZM11.4 28.9H6V23.5H11.4V28.9ZM6 61.2H0.7V28.9H6V61.2ZM11.4 66.6H6V61.2H11.4V66.6ZM11.4 66.6H33V72H11.4V66.6ZM81.4375 23.5H59.8375V18.2H81.4375V23.5ZM59.8375 28.9H54.5375V23.5H59.8375V28.9ZM86.8375 28.9H81.4375V23.5H86.8375V28.9ZM54.5375 45.1H86.8375V28.9H92.2375V50.5H54.5375V61.2H49.1375V28.9H54.5375V45.1ZM86.8375 55.8H92.2375V61.2H86.8375V55.8ZM54.5375 61.2H59.8375V66.6H54.5375V61.2ZM86.8375 66.6H81.4375V61.2H86.8375V66.6ZM59.8375 66.6H81.4375V72H59.8375V66.6ZM125.373 87.8H102.973V0.599995H125.373V7.8H111.573V80.6H125.373V87.8ZM162.883 23.5H141.283V18.2H162.883V23.5ZM141.283 28.9H135.883V23.5H141.283V28.9ZM168.283 28.9H162.883V23.5H168.283V28.9ZM135.883 34.3H130.583V28.9H135.883V34.3ZM168.283 28.9H173.583V34.3H168.283V28.9ZM141.283 39.7H135.883V34.3H141.283V39.7ZM152.083 45.1H141.283V39.7H152.083V45.1ZM162.883 50.5H152.083V45.1H162.883V50.5ZM168.283 55.8H162.883V50.5H168.283V55.8ZM135.883 61.2H130.583V55.8H135.883V61.2ZM168.283 55.8H173.583V61.2H168.283V55.8ZM141.283 66.6H135.883V61.2H141.283V66.6ZM168.283 66.6H162.883V61.2H168.283V66.6ZM141.283 66.6H162.883V72H141.283V66.6ZM184.42 61.2H179.02V18.1H184.42V61.2ZM211.42 66.6H206.02V61.2H211.42V18.1H216.72V72H211.42V66.6ZM189.82 66.6H184.42V61.2H189.82V66.6ZM189.82 66.6H206.02V72H189.82V66.6ZM227.387 28.9H232.787V34.3H227.387V55.9H232.787V61.3H227.387V93.6H222.087V18.2H227.387V28.9ZM254.387 23.6H238.287V18.2H254.387V23.6ZM238.287 28.9H232.787V23.6H238.287V28.9ZM259.787 28.9H254.387V23.6H259.787V28.9ZM259.787 28.9H265.087V61.3H259.787V28.9ZM232.787 61.3H238.287V66.6H232.787V61.3ZM259.787 66.6H254.387V61.3H259.787V66.6ZM238.287 66.6H254.387V72H238.287V66.6ZM302.824 23.5H281.224V18.2H302.824V23.5ZM281.224 28.9H275.924V23.5H281.224V28.9ZM308.224 28.9H302.824V23.5H308.224V28.9ZM275.924 45.1H308.224V28.9H313.624V50.5H275.924V61.2H270.524V28.9H275.924V45.1ZM308.224 55.8H313.624V61.2H308.224V55.8ZM275.924 61.2H281.224V66.6H275.924V61.2ZM308.224 66.6H302.824V61.2H308.224V66.6ZM281.224 66.6H302.824V72H281.224V66.6ZM324.459 28.9H329.859V34.3H324.459V72H319.059V18.2H324.459V28.9ZM346.059 23.5H335.259V18.2H346.059V23.5ZM335.259 28.9H329.859V23.5H335.259V28.9ZM346.059 23.5H351.359V28.9H346.059V23.5ZM356.755 2H362.055V28.9H367.455V34.3H362.055V61.2H367.455V66.6H362.055V72H356.755V2ZM389.055 23.5H372.855V18.2H389.055V23.5ZM372.855 28.9H367.455V23.5H372.855V28.9ZM394.455 28.9H389.055V23.5H394.455V28.9ZM394.455 28.9H399.755V61.2H394.455V28.9ZM394.455 66.6H389.055V61.2H394.455V66.6ZM367.455 66.6H389.055V72H367.455V66.6ZM437.392 23.5H415.992V18.2H437.392V23.5ZM415.992 28.9H410.592V23.5H415.992V28.9ZM442.792 28.9H437.392V23.5H442.792V28.9ZM410.592 61.2H405.192V28.9H410.592V61.2ZM448.192 61.2H442.792V28.9H448.192V61.2ZM415.992 66.6H410.592V61.2H415.992V66.6ZM442.792 66.6H437.392V61.2H442.792V66.6ZM415.992 66.6H437.392V72H415.992V66.6ZM459.03 34.3H453.63V18.2H459.03V34.3ZM518.23 18.2H523.63V34.3H518.23V18.2ZM491.33 34.3H485.93V18.2H491.33V34.3ZM485.93 45.1H480.53V34.3H485.93V45.1ZM496.73 45.1H491.33V34.3H496.73V45.1ZM464.43 45.1H459.03V34.3H464.43V45.1ZM518.23 45.1H512.83V34.3H518.23V45.1ZM480.53 61.2H475.13V45.1H480.53V61.2ZM502.03 61.2H496.73V45.1H502.03V61.2ZM512.83 61.2H507.43V45.1H512.83V61.2ZM469.73 61.2H464.43V45.1H469.73V61.2ZM469.73 72V61.2H475.13V72H469.73ZM502.03 72V61.2H507.43V72H502.03ZM529.02 2H534.42V66.6H529.02V2ZM534.42 66.6H539.82V72H534.42V66.6ZM545.031 80.6H558.831V7.8H545.031V0.599995H567.431V87.8H545.031V80.6Z" fill="white"/>
</svg>
