<svg width="358" height="56" viewBox="0 0 358 56" fill="none" xmlns="http://www.w3.org/2000/svg">
  <path
    d="M22.7152 20.38H19.5352V17.14H9.81516V20.38H6.57516V33.28H9.81516V36.52H19.5352V33.28H22.7152V20.38ZM3.33516 17.14V13.9H6.57516V10.72H19.5352V13.9H22.7152V0.999997H29.1952V43H22.7152V39.76H19.5352V43H6.57516V39.76H3.33516V36.52H0.155156V17.14H3.33516ZM35.6803 17.14V13.9H38.8603V10.72H51.8203V13.9H55.0603V17.14H58.3003V30.1H38.9203V33.28H42.1003V36.52H48.5803V33.28H58.3003V36.52H55.0603V39.76H51.8203V43H38.8603V39.76H35.6803V36.52H32.4403V17.14H35.6803ZM51.8203 23.62V20.32H48.5803V17.08H42.1003V20.32H38.9203V23.62H51.8203ZM78.3014 52.48H64.1414V0.159997H78.3014V6.34H71.7614V46.3H78.3014V52.48ZM84.6647 17.14V13.9H87.9047V10.72H100.865V13.9H104.105V17.14H107.285V23.56H100.865V20.32H97.6247V17.08H87.9047V20.38H91.1447V23.62H97.6247V26.86H104.105V30.1H107.285V36.52H104.105V39.76H100.865V43H87.9047V39.76H84.6647V36.52H81.4847V30.04H87.9047V33.28H91.1447V36.52H100.865V33.28H97.6247V30.1H91.1447V26.86H84.6647V23.62H81.4247V17.14H84.6647ZM117.026 43V39.76H113.786V36.52H110.546V10.66H117.026V33.28H120.266V36.52H126.746V33.28H129.986V10.66H136.346V43H129.866V39.76H126.746V43H117.026ZM146.028 20.38V33.4H149.328V36.52H155.748V33.34H158.988V20.38H155.748V17.2H149.328V20.38H146.028ZM149.328 13.96V10.72H158.988V13.96H162.228V17.14H165.408V36.58H162.228V39.76H158.988V43H149.328V39.76H146.028V55.96H139.608V10.72H146.028V13.96H149.328ZM171.911 17.14V13.9H175.091V10.72H188.051V13.9H191.291V17.14H194.531V30.1H175.151V33.28H178.331V36.52H184.811V33.28H194.531V36.52H191.291V39.76H188.051V43H175.091V39.76H171.911V36.52H168.671V17.14H171.911ZM188.051 23.62V20.32H184.811V17.08H178.331V20.32H175.151V23.62H188.051ZM197.792 43V10.72H204.272V13.9H207.512V10.72H213.992V13.9H217.172V20.32H210.812V17.08H207.512V20.32H204.272V43H197.792ZM226.769 17.14H230.009V13.9H233.249V10.72H242.969V13.9H246.209V17.14H249.389V36.52H246.209V39.76H242.969V43H230.009V39.76H226.769V43H220.409V0.999997H226.769V17.14ZM226.769 33.28H230.009V36.52H239.729V33.28H242.969V20.38H239.729V17.14H233.249V20.32H230.009V23.56H226.769V33.28ZM255.876 17.14V13.9H259.116V10.72H272.076V13.9H275.316V17.14H278.556V36.52H275.316V39.76H272.076V43H259.116V39.76H255.876V36.52H252.636V17.14H255.876ZM259.116 33.28H262.356V36.52H268.836V33.28H272.076V20.32H268.836V17.08H262.356V20.32H259.116V33.28ZM288.295 20.38H291.535V26.86H297.955V20.38H301.195V10.72H307.675V20.38H310.915V26.86H317.335V20.38H320.575V10.72H327.055V20.38H323.815V26.86H320.575V36.52H317.335V43H310.855V36.52H307.675V26.86H301.195V36.52H297.955V43H291.475V36.52H288.295V26.86H285.055V20.38H281.815V10.72H288.295V20.38ZM330.272 39.76V0.999997H336.752V36.52H339.992V43H333.512V39.76H330.272ZM343.102 46.3H349.642V6.34H343.102V0.159997H357.262V52.48H343.102V46.3Z"
    fill="white" />
</svg>