<svg width="18" height="18" viewBox="0 0 18 18" fill="none" xmlns="http://www.w3.org/2000/svg">
<path d="M0.629465 7.11598C0.286229 7.11598 0.00158691 6.8313 0.00158691 6.4881V4.39515C0.00158691 1.96734 1.97732 0 4.39673 0H6.48973C6.83293 0 7.11761 0.28463 7.11761 0.627878C7.11761 0.971114 6.83293 1.25576 6.48973 1.25576H4.39673C2.66379 1.25576 1.25734 2.6622 1.25734 4.39515V6.4881C1.25734 6.8313 0.972714 7.11598 0.629465 7.11598Z" fill="#1BCEA3"/>
<path d="M17.3721 7.11598C17.0288 7.11598 16.7442 6.8313 16.7442 6.4881V4.39515C16.7442 2.6622 15.3378 1.25576 13.6048 1.25576H11.5119C11.1687 1.25576 10.884 0.971114 10.884 0.627878C10.884 0.28463 11.1687 0 11.5119 0H13.6048C16.0242 0 18 1.96734 18 4.39515V6.4881C18 6.8313 17.7153 7.11598 17.3721 7.11598Z" fill="#2F8EFF"/>
<path d="M13.604 18H12.3482C12.005 18 11.7203 17.7153 11.7203 17.3721C11.7203 17.0289 12.005 16.7442 12.3482 16.7442H13.604C15.3369 16.7442 16.7434 15.3378 16.7434 13.6049V12.3491C16.7434 12.0059 17.028 11.7212 17.3712 11.7212C17.7144 11.7212 17.9991 12.0059 17.9991 12.3491V13.6049C17.9991 16.0326 16.0234 18 13.604 18Z" fill="#FF6B6B"/>
<path d="M6.48973 17.9996H4.39673C1.97732 17.9996 0.00158691 16.0322 0.00158691 13.6045V11.5115C0.00158691 11.1683 0.286229 10.8836 0.629465 10.8836C0.972714 10.8836 1.25734 11.1683 1.25734 11.5115V13.6045C1.25734 15.3374 2.66379 16.7439 4.39673 16.7439H6.48973C6.83293 16.7439 7.11761 17.0284 7.11761 17.3717C7.11761 17.7149 6.83293 17.9996 6.48973 17.9996Z" fill="#FFCA7B"/>
<path d="M0.629465 7.11598C0.286229 7.11598 0.00158691 6.8313 0.00158691 6.4881V4.39515C0.00158691 1.96734 1.97732 0 4.39673 0H6.48973C6.83293 0 7.11761 0.28463 7.11761 0.627878C7.11761 0.971114 6.83293 1.25576 6.48973 1.25576H4.39673C2.66379 1.25576 1.25734 2.6622 1.25734 4.39515V6.4881C1.25734 6.8313 0.972714 7.11598 0.629465 7.11598Z" fill="#1BCEA3"/>
<path d="M17.3721 7.11598C17.0288 7.11598 16.7442 6.8313 16.7442 6.4881V4.39515C16.7442 2.6622 15.3378 1.25576 13.6048 1.25576H11.5119C11.1687 1.25576 10.884 0.971114 10.884 0.627878C10.884 0.28463 11.1687 0 11.5119 0H13.6048C16.0242 0 18 1.96734 18 4.39515V6.4881C18 6.8313 17.7153 7.11598 17.3721 7.11598Z" fill="#2F8EFF"/>
<path d="M13.604 18H12.3482C12.005 18 11.7203 17.7153 11.7203 17.3721C11.7203 17.0289 12.005 16.7442 12.3482 16.7442H13.604C15.3369 16.7442 16.7434 15.3378 16.7434 13.6049V12.3491C16.7434 12.0059 17.028 11.7212 17.3712 11.7212C17.7144 11.7212 17.9991 12.0059 17.9991 12.3491V13.6049C17.9991 16.0326 16.0234 18 13.604 18Z" fill="#FF6B6B"/>
<path d="M6.48973 17.9996H4.39673C1.97732 17.9996 0.00158691 16.0322 0.00158691 13.6045V11.5115C0.00158691 11.1683 0.286229 10.8836 0.629465 10.8836C0.972714 10.8836 1.25734 11.1683 1.25734 11.5115V13.6045C1.25734 15.3374 2.66379 16.7439 4.39673 16.7439H6.48973C6.83293 16.7439 7.11761 17.0284 7.11761 17.3717C7.11761 17.7149 6.83293 17.9996 6.48973 17.9996Z" fill="#FFCA7B"/>
</svg>
