<svg width="40" height="40" viewBox="0 0 40 40" fill="none" xmlns="http://www.w3.org/2000/svg">
  <circle cx="20" cy="20" r="19.5" stroke="white" />
  <path
    d="M22.5 15C22.4792 14.0625 22.0625 13.3438 21.25 12.8438C20.4167 12.3854 19.5833 12.3854 18.75 12.8438C17.9375 13.3438 17.5208 14.0625 17.5 15C17.5208 15.9375 17.9375 16.6562 18.75 17.1562C19.5833 17.6146 20.4167 17.6146 21.25 17.1562C22.0625 16.6562 22.4792 15.9375 22.5 15ZM16 15C16 14.2708 16.1771 13.6042 16.5312 13C16.8854 12.3958 17.375 11.9062 18 11.5312C18.625 11.1771 19.2917 11 20 11C20.7083 11 21.375 11.1771 22 11.5312C22.625 11.9062 23.1146 12.3958 23.4688 13C23.8229 13.6042 24 14.2708 24 15C24 15.7292 23.8229 16.3958 23.4688 17C23.1146 17.6042 22.625 18.0938 22 18.4688C21.375 18.8229 20.7083 19 20 19C19.2917 19 18.625 18.8229 18 18.4688C17.375 18.0938 16.8854 17.6042 16.5312 17C16.1771 16.3958 16 15.7292 16 15ZM14.5312 25.5H25.4688C25.3021 24.4792 24.8542 23.6458 24.125 23C23.375 22.3542 22.4792 22.0208 21.4375 22H18.5625C17.5208 22.0208 16.6354 22.3542 15.9062 23C15.1562 23.6458 14.6979 24.4792 14.5312 25.5ZM13 26.0625C13.0417 24.5 13.5833 23.1875 14.625 22.125C15.6875 21.0833 17 20.5417 18.5625 20.5H21.4375C23 20.5417 24.3125 21.0833 25.375 22.125C26.4167 23.1875 26.9583 24.5 27 26.0625C27 26.3333 26.9062 26.5521 26.7188 26.7188C26.5521 26.9062 26.3333 27 26.0625 27H13.9375C13.6667 27 13.4479 26.9062 13.2812 26.7188C13.0938 26.5521 13 26.3333 13 26.0625Z"
    fill="white" />
</svg>